<svg width="176" height="192" viewBox="0 0 176 192" fill="none" xmlns="http://www.w3.org/2000/svg">
<path d="M59.9576 175.459H113.59V88.3105C113.59 83.8965 117.145 80.3418 121.52 80.3418H148.59L87.7311 19.209L26.9107 80.3418H51.9889C56.3639 80.3418 59.9186 83.8965 59.9186 88.3105V175.459H59.9576V175.459ZM121.481 191.436H51.9889C47.6139 191.436 44.0592 187.881 44.0592 183.467V96.3184H7.77012C-0.003317 96.3184 -2.07363 86.9824 2.14512 82.6855L82.1451 2.25586C85.1139 -0.751953 90.3873 -0.751953 93.3561 2.25586L173.317 82.6855C178.239 87.6465 175.426 96.3184 167.692 96.3184H129.411V183.467C129.45 187.881 125.895 191.436 121.481 191.436Z" fill="#646363"/>
</svg>
