<svg width="176" height="192" viewBox="0 0 176 192" fill="none" xmlns="http://www.w3.org/2000/svg">
<g opacity="0.8">
<path d="M115.808 15.9766H62.1751L62.1751 103.125C62.1751 107.539 58.6205 111.094 54.2455 111.094H27.1751L88.0345 172.227L148.855 111.094H123.777C119.402 111.094 115.847 107.539 115.847 103.125L115.847 15.9766H115.808V15.9766ZM54.2845 -4.76837e-06L123.777 -4.76837e-06C128.152 -4.76837e-06 131.706 3.55468 131.706 7.96874L131.706 95.1172H167.995C175.769 95.1172 177.839 104.453 173.62 108.75L93.6205 189.18C90.6517 192.188 85.3783 192.188 82.4095 189.18L2.44858 108.75C-2.4733 103.789 0.339211 95.1172 8.07359 95.1172H46.3548L46.3548 7.96874C46.3158 3.55468 49.8705 -4.76837e-06 54.2845 -4.76837e-06Z" fill="#646363"/>
</g>
</svg>
